<svg xmlns="http://www.w3.org/2000/svg" version="1.1" xmlns:xlink="http://www.w3.org/1999/xlink" xmlns:svgjs="http://svgjs.com/svgjs" width="512" height="512" x="0" y="0" viewBox="0 0 510 510" style="enable-background:new 0 0 512 512" xml:space="preserve"><g><linearGradient xmlns="http://www.w3.org/2000/svg" id="lg1"><stop offset="0" stop-color="#eaf6ff"/><stop offset=".2575" stop-color="#dce8fa"/><stop offset=".7423" stop-color="#b8c4ed"/><stop offset="1" stop-color="#a2aee6"/></linearGradient><linearGradient xmlns="http://www.w3.org/2000/svg" id="SVGID_1_" gradientUnits="userSpaceOnUse" x1="109.768" x2="498.321" xmlns:xlink="http://www.w3.org/1999/xlink" xlink:href="#lg1" y1="146.019" y2="534.572"/><linearGradient xmlns="http://www.w3.org/2000/svg" id="SVGID_2_" gradientUnits="userSpaceOnUse" x1="218.044" x2="218.044" y1="352.667" y2="506.737"><stop offset="0" stop-color="#7bacdf" stop-opacity="0"/><stop offset="1" stop-color="#7bacdf"/></linearGradient><linearGradient xmlns="http://www.w3.org/2000/svg" id="SVGID_3_" gradientUnits="userSpaceOnUse" x1="346.093" x2="244.189" y1="550.993" y2="449.089"><stop offset="0" stop-color="#8795de" stop-opacity="0"/><stop offset=".4678" stop-color="#7d8ddc" stop-opacity=".468"/><stop offset="1" stop-color="#6c7fd8"/></linearGradient><linearGradient xmlns="http://www.w3.org/2000/svg" id="SVGID_4_" gradientUnits="userSpaceOnUse" x1="158.894" x2="158.894" xmlns:xlink="http://www.w3.org/1999/xlink" xlink:href="#lg1" y1="416" y2="517.079"/><linearGradient xmlns="http://www.w3.org/2000/svg" id="SVGID_5_" gradientUnits="userSpaceOnUse" x1="309.21" x2="501.881" y1="327.858" y2="520.528"><stop offset="0" stop-color="#fee45a"/><stop offset="1" stop-color="#fe860a"/></linearGradient><linearGradient xmlns="http://www.w3.org/2000/svg" id="lg2"><stop offset="0" stop-color="#fe860a" stop-opacity="0"/><stop offset="1" stop-color="#fe7701"/></linearGradient><linearGradient xmlns="http://www.w3.org/2000/svg" id="SVGID_6_" gradientUnits="userSpaceOnUse" x1="493.651" x2="245.225" xmlns:xlink="http://www.w3.org/1999/xlink" xlink:href="#lg2" y1="412.31" y2="235.81"/><linearGradient xmlns="http://www.w3.org/2000/svg" id="SVGID_7_" gradientUnits="userSpaceOnUse" x1="518.021" x2="366.018" xmlns:xlink="http://www.w3.org/1999/xlink" xlink:href="#lg2" y1="358.573" y2="518.881"/><linearGradient xmlns="http://www.w3.org/2000/svg" id="SVGID_8_" gradientUnits="userSpaceOnUse" x1="389.336" x2="389.336" xmlns:xlink="http://www.w3.org/1999/xlink" xlink:href="#lg2" y1="475.93" y2="519.556"/><linearGradient xmlns="http://www.w3.org/2000/svg" id="SVGID_9_" gradientUnits="userSpaceOnUse" x1="331.504" x2="400.143" xmlns:xlink="http://www.w3.org/1999/xlink" xlink:href="#lg1" y1="311.355" y2="379.994"/><linearGradient xmlns="http://www.w3.org/2000/svg" id="lg3"><stop offset="0" stop-color="#537983"/><stop offset="1" stop-color="#3e5959"/></linearGradient><linearGradient xmlns="http://www.w3.org/2000/svg" id="SVGID_10_" gradientUnits="userSpaceOnUse" x1="126.753" x2="126.753" xmlns:xlink="http://www.w3.org/1999/xlink" xlink:href="#lg3" y1="72.515" y2="138.848"/><linearGradient xmlns="http://www.w3.org/2000/svg" id="lg4"><stop offset="0" stop-color="#a2e62e"/><stop offset="1" stop-color="#02905d"/></linearGradient><linearGradient xmlns="http://www.w3.org/2000/svg" id="SVGID_11_" gradientUnits="userSpaceOnUse" x1="137.836" x2="163.186" xmlns:xlink="http://www.w3.org/1999/xlink" xlink:href="#lg4" y1="74.759" y2="100.109"/><linearGradient xmlns="http://www.w3.org/2000/svg" id="SVGID_12_" gradientUnits="userSpaceOnUse" x1="126.753" x2="126.753" xmlns:xlink="http://www.w3.org/1999/xlink" xlink:href="#lg3" y1="188.013" y2="254.346"/><linearGradient xmlns="http://www.w3.org/2000/svg" id="SVGID_13_" gradientUnits="userSpaceOnUse" x1="137.836" x2="163.186" xmlns:xlink="http://www.w3.org/1999/xlink" xlink:href="#lg4" y1="190.257" y2="215.608"/><g xmlns="http://www.w3.org/2000/svg"><g><path d="m364.242 0c14.709 0 26.634 11.924 26.634 26.634v410.276c0 20.19-8.18 38.46-21.41 51.68-13.22 13.23-31.5 21.41-51.68 21.41h-243.537c-16.034 0-29.033-12.998-29.033-29.033v-454.333c0-14.71 11.924-26.634 26.634-26.634z" fill="url(#SVGID_1_)" data-original="url(#SVGID_1_)" style=""/><path d="m390.876 436.91v-126.91h-345.665v170.967c0 16.035 12.999 29.033 29.033 29.033h243.542c20.18 0 38.46-8.18 51.68-21.41 13.23-13.22 21.41-31.49 21.41-51.68z" fill="url(#SVGID_2_)" data-original="url(#SVGID_2_)" style=""/><path d="m239.836 421.75v16.077c0 39.86 32.313 72.173 72.173 72.173h5.779c3.272 0 6.487-.237 9.645-.653z" fill="url(#SVGID_3_)" data-original="url(#SVGID_3_)" style=""/><path d="m244.701 436.914c0 40.364 32.722 73.086 73.086 73.086h-244.701c-40.364 0-73.086-32.722-73.086-73.086 0-15.353 12.446-27.799 27.799-27.799h189.104c15.352 0 27.798 12.446 27.798 27.799z" fill="url(#SVGID_4_)" data-original="url(#SVGID_4_)" style=""/></g><g><g><path d="m500.922 510h-223.172c-5.013 0-9.078-4.064-9.078-9.078v-185.877c0-5.013 4.064-9.078 9.078-9.078h223.173c5.013 0 9.078 4.064 9.078 9.078v185.877c-.001 5.014-4.065 9.078-9.079 9.078z" fill="url(#SVGID_5_)" data-original="url(#SVGID_5_)" style=""/><path d="m510 315.044v185.879c0 5.011-4.065 9.076-9.076 9.076h-29.622l-146.202-146.202v-57.829h175.824c5.011 0 9.076 4.065 9.076 9.076z" fill="url(#SVGID_6_)" data-original="url(#SVGID_6_)" style=""/><path d="m500.922 305.968h-63.408c5.013 0 9.078 4.064 9.078 9.078v185.877c0 5.013-4.064 9.078-9.078 9.078h63.408c5.013 0 9.078-4.064 9.078-9.078v-185.878c0-5.013-4.064-9.077-9.078-9.077z" fill="url(#SVGID_7_)" data-original="url(#SVGID_7_)" style=""/><path d="m268.672 460.788v40.134c0 5.013 4.064 9.078 9.078 9.078h223.173c5.013 0 9.078-4.064 9.078-9.078v-40.134z" fill="url(#SVGID_8_)" data-original="url(#SVGID_8_)" style=""/></g><path d="m334.417 365.352.178.108c4.08 2.477 9.21 2.436 13.25-.108 4.128-2.493 9.298-2.493 13.426 0 4.128 2.493 9.298 2.493 13.426 0h.001c1.913-1.108 4.03-1.132 6.162-.732 2.432.456 4.69-1.367 4.69-3.841v-52.966c0-1.764-1.43-3.194-3.194-3.194h-55.601c-1.764 0-3.194 1.43-3.194 3.194v52.891c0 2.459 2.237 4.3 4.654 3.848 2.155-.404 4.291-.36 6.202.8z" fill="url(#SVGID_9_)" data-original="url(#SVGID_9_)" style=""/></g><g><g><g><path d="m363.086 105.681c0 6.264-5.078 11.342-11.342 11.342h-157.014c-6.264 0-11.342-5.078-11.342-11.342 0-6.264 5.078-11.342 11.342-11.342h157.014c6.264.001 11.342 5.079 11.342 11.342z" fill="#a2aee6" data-original="#a2aee6" style=""/></g><path d="m139.463 138.848h-25.419c-11.28 0-20.457-9.177-20.457-20.457v-25.419c0-11.28 9.177-20.457 20.457-20.457h25.419c11.28 0 20.457 9.177 20.457 20.457v25.419c0 11.28-9.177 20.457-20.457 20.457zm-25.42-51.333c-3.009 0-5.457 2.448-5.457 5.457v25.419c0 3.009 2.448 5.457 5.457 5.457h25.419c3.009 0 5.457-2.448 5.457-5.457v-25.419c0-3.009-2.448-5.457-5.457-5.457z" fill="url(#SVGID_10_)" data-original="url(#SVGID_10_)" style=""/></g><path d="m127.336 123.759c-3.199 0-6.398-1.221-8.839-3.661l-27.25-27.25c-4.881-4.882-4.881-12.796 0-17.678 4.882-4.881 12.796-4.881 17.678 0l18.411 18.411 38.161-38.161c4.882-4.881 12.796-4.881 17.678 0 4.881 4.882 4.881 12.796 0 17.678l-47 47c-2.441 2.441-5.64 3.661-8.839 3.661z" fill="url(#SVGID_11_)" data-original="url(#SVGID_11_)" style=""/></g><g fill="#a2aee6"><path d="m127.253 320.968h-37.759c-1.054 0-1.908-.854-1.908-1.908v-11.185c0-1.054.854-1.908 1.908-1.908h37.759c1.054 0 1.908.854 1.908 1.908v11.185c-.001 1.054-.855 1.908-1.908 1.908z" fill="#a2aee6" data-original="#a2aee6" style=""/><path d="m175.253 349.968h-85.759c-1.054 0-1.908-.854-1.908-1.908v-11.185c0-1.054.854-1.908 1.908-1.908h85.759c1.054 0 1.908.854 1.908 1.908v11.185c-.001 1.054-.855 1.908-1.908 1.908z" fill="#a2aee6" data-original="#a2aee6" style=""/><path d="m149.253 378.968h-59.759c-1.054 0-1.908-.854-1.908-1.908v-11.185c0-1.054.854-1.908 1.908-1.908h59.759c1.054 0 1.908.854 1.908 1.908v11.185c-.001 1.054-.855 1.908-1.908 1.908z" fill="#a2aee6" data-original="#a2aee6" style=""/></g><g><g><g><path d="m363.086 221.18c0 6.264-5.078 11.342-11.342 11.342h-157.014c-6.264 0-11.342-5.078-11.342-11.342 0-6.264 5.078-11.342 11.342-11.342h157.014c6.264 0 11.342 5.078 11.342 11.342z" fill="#a2aee6" data-original="#a2aee6" style=""/></g><path d="m139.463 254.346h-25.419c-11.28 0-20.457-9.177-20.457-20.457v-25.419c0-11.28 9.177-20.457 20.457-20.457h25.419c11.28 0 20.457 9.177 20.457 20.457v25.419c0 11.28-9.177 20.457-20.457 20.457zm-25.42-51.333c-3.009 0-5.457 2.448-5.457 5.457v25.419c0 3.009 2.448 5.457 5.457 5.457h25.419c3.009 0 5.457-2.448 5.457-5.457v-25.419c0-3.009-2.448-5.457-5.457-5.457z" fill="url(#SVGID_12_)" data-original="url(#SVGID_12_)" style=""/></g><path d="m127.336 239.257c-3.199 0-6.398-1.221-8.839-3.661l-27.25-27.25c-4.881-4.882-4.881-12.796 0-17.678 4.882-4.881 12.796-4.881 17.678 0l18.411 18.411 38.161-38.161c4.882-4.881 12.796-4.881 17.678 0 4.881 4.882 4.881 12.796 0 17.678l-47 47c-2.441 2.441-5.64 3.661-8.839 3.661z" fill="url(#SVGID_13_)" data-original="url(#SVGID_13_)" style=""/></g></g></g></svg>