<svg xmlns="http://www.w3.org/2000/svg" version="1.1" xmlns:xlink="http://www.w3.org/1999/xlink" xmlns:svgjs="http://svgjs.com/svgjs" width="512" height="512" x="0" y="0" viewBox="0 0 510 510" style="enable-background:new 0 0 512 512" xml:space="preserve"><g><linearGradient xmlns="http://www.w3.org/2000/svg" id="lg1"><stop offset="0" stop-color="#5a5a5a"/><stop offset="1" stop-color="#444"/></linearGradient><linearGradient xmlns="http://www.w3.org/2000/svg" id="SVGID_1_" gradientUnits="userSpaceOnUse" x1="90.09" x2="388.025" xmlns:xlink="http://www.w3.org/1999/xlink" xlink:href="#lg1" y1="246.436" y2="246.436"/><linearGradient xmlns="http://www.w3.org/2000/svg" id="lg2"><stop offset="0" stop-color="#b3dafe"/><stop offset="1" stop-color="#7bacdf"/></linearGradient><linearGradient xmlns="http://www.w3.org/2000/svg" id="SVGID_00000080193584093791790630000003110510414362996665_" gradientUnits="userSpaceOnUse" x1="209.73" x2="263.749" xmlns:xlink="http://www.w3.org/1999/xlink" xlink:href="#lg2" y1="39.543" y2="93.562"/><linearGradient xmlns="http://www.w3.org/2000/svg" id="SVGID_00000013896322493339193870000017873999680269674624_" gradientUnits="userSpaceOnUse" x1="276.976" x2="196.89" xmlns:xlink="http://www.w3.org/1999/xlink" xlink:href="#lg2" y1="106.786" y2="26.701"/><linearGradient xmlns="http://www.w3.org/2000/svg" id="lg3"><stop offset="0" stop-color="#7bacdf" stop-opacity="0"/><stop offset="1" stop-color="#0681af"/></linearGradient><linearGradient xmlns="http://www.w3.org/2000/svg" id="SVGID_00000160904271822513045620000000632166776808021920_" gradientUnits="userSpaceOnUse" x1="239.057" x2="239.057" xmlns:xlink="http://www.w3.org/1999/xlink" xlink:href="#lg3" y1="81.367" y2="132.375"/><linearGradient xmlns="http://www.w3.org/2000/svg" id="SVGID_00000150804719311618059290000001490980723184439209_" gradientUnits="userSpaceOnUse" x1="349.192" x2="282.722" xmlns:xlink="http://www.w3.org/1999/xlink" xlink:href="#lg2" y1="270.405" y2="309.179"/><linearGradient xmlns="http://www.w3.org/2000/svg" id="SVGID_00000042721698495463938090000010705675781423491493_" gradientUnits="userSpaceOnUse" x1="293.674" x2="331.34" xmlns:xlink="http://www.w3.org/1999/xlink" xlink:href="#lg2" y1="280.281" y2="258.863"/><linearGradient xmlns="http://www.w3.org/2000/svg" id="SVGID_00000170265046993431259360000002964738902904349357_" gradientUnits="userSpaceOnUse" x1="345.39" x2="394.134" xmlns:xlink="http://www.w3.org/1999/xlink" xlink:href="#lg3" y1="335.862" y2="408.978"/><linearGradient xmlns="http://www.w3.org/2000/svg" id="SVGID_00000099650228211765318670000017823911251482340277_" gradientUnits="userSpaceOnUse" x1="411.628" x2="431.647" y1="478.291" y2="478.291"><stop offset="0" stop-color="#ffdfcf"/><stop offset="1" stop-color="#ffa78f"/></linearGradient><linearGradient xmlns="http://www.w3.org/2000/svg" id="lg4"><stop offset="0" stop-color="#fd0"/><stop offset="1" stop-color="#ffb000"/></linearGradient><linearGradient xmlns="http://www.w3.org/2000/svg" id="SVGID_00000084515581797202596210000002121909749479255952_" gradientUnits="userSpaceOnUse" x1="390.22" x2="449.424" xmlns:xlink="http://www.w3.org/1999/xlink" xlink:href="#lg4" y1="343.488" y2="343.488"/><linearGradient xmlns="http://www.w3.org/2000/svg" id="SVGID_00000103261743980006621430000007384311171552824736_" gradientUnits="userSpaceOnUse" x1="441.829" x2="385.623" xmlns:xlink="http://www.w3.org/1999/xlink" xlink:href="#lg4" y1="348.615" y2="348.615"/><linearGradient xmlns="http://www.w3.org/2000/svg" id="SVGID_00000183222493023709308800000007183588800560513714_" gradientUnits="userSpaceOnUse" x1="416.684" x2="425.004" xmlns:xlink="http://www.w3.org/1999/xlink" xlink:href="#lg1" y1="500.664" y2="500.664"/><linearGradient xmlns="http://www.w3.org/2000/svg" id="SVGID_00000052087666819314731650000016213620417598906559_" gradientUnits="userSpaceOnUse" x1="400.741" x2="400.741" xmlns:xlink="http://www.w3.org/1999/xlink" xlink:href="#lg2" y1="416.853" y2="447.499"/><linearGradient xmlns="http://www.w3.org/2000/svg" id="SVGID_00000173132820504969898910000006490628071740163742_" gradientUnits="userSpaceOnUse" x1="284.753" x2="247.826" xmlns:xlink="http://www.w3.org/1999/xlink" xlink:href="#lg3" y1="196.8" y2="172.427"/><linearGradient xmlns="http://www.w3.org/2000/svg" id="SVGID_00000010296467338282315540000015167256080650279608_" gradientTransform="matrix(.951 -.308 .308 .951 -105.414 -72.496)" gradientUnits="userSpaceOnUse" x1="-19.253" x2="-9.071" xmlns:xlink="http://www.w3.org/1999/xlink" xlink:href="#lg1" y1="573.255" y2="583.437"/><linearGradient xmlns="http://www.w3.org/2000/svg" id="SVGID_00000143598066917997751220000003898633520314936979_" gradientTransform="matrix(.891 .455 -.455 .891 -3108.178 -914.921)" gradientUnits="userSpaceOnUse" x1="3449.076" x2="3470.302" y1="-229.809" y2="-229.809"><stop offset="0" stop-color="#eaf6ff"/><stop offset="1" stop-color="#b3dafe"/></linearGradient><linearGradient xmlns="http://www.w3.org/2000/svg" id="SVGID_00000106113767659577927640000014799446411790859946_" gradientTransform="matrix(.951 -.308 .308 .951 -105.414 -72.496)" gradientUnits="userSpaceOnUse" x1="12.836" x2="27.935" y1="553.144" y2="538.044"><stop offset="0" stop-color="#d8ecfe" stop-opacity="0"/><stop offset="1" stop-color="#678d98"/></linearGradient><linearGradient xmlns="http://www.w3.org/2000/svg" id="SVGID_00000080915554001408175370000012638640752262987651_" gradientTransform="matrix(.951 -.308 .308 .951 -105.414 -72.496)" gradientUnits="userSpaceOnUse" x1="141.758" x2="172.095" xmlns:xlink="http://www.w3.org/1999/xlink" xlink:href="#lg2" y1="394.638" y2="424.975"/><linearGradient xmlns="http://www.w3.org/2000/svg" id="SVGID_00000054259819864308419590000010041690498295835555_" gradientTransform="matrix(-1 0 0 1 -426.406 0)" gradientUnits="userSpaceOnUse" x1="-617.853" x2="-580.187" xmlns:xlink="http://www.w3.org/1999/xlink" xlink:href="#lg2" y1="280.281" y2="258.863"/><g xmlns="http://www.w3.org/2000/svg"><path d="m379.716 254.744h-281.318c-4.589 0-8.309-3.719-8.309-8.309 0-4.589 3.72-8.309 8.309-8.309h281.318c4.589 0 8.309 3.719 8.309 8.309s-3.719 8.309-8.309 8.309z" fill="url(#SVGID_1_)" data-original="url(#SVGID_1_)" style=""/><g><path d="m239.057 0c-38.037 0-68.867 30.835-68.867 68.868 0 38.037 30.83 68.873 68.868 68.873 38.037 0 68.868-30.836 68.868-68.873-.001-38.033-30.831-68.868-68.869-68.868zm0 101.946c-18.269 0-33.079-14.809-33.079-33.079 0-18.264 14.809-33.074 33.079-33.074 18.269 0 33.079 14.809 33.079 33.074 0 18.27-14.809 33.079-33.079 33.079z" fill="url(#SVGID_00000080193584093791790630000003110510414362996665_)" data-original="url(#SVGID_00000080193584093791790630000003110510414362996665_)" style=""/><path d="m239.057 17.894c-28.151 0-50.973 22.822-50.973 50.973s22.822 50.973 50.973 50.973 50.973-22.822 50.973-50.973-22.822-50.973-50.973-50.973zm0 84.052c-18.269 0-33.079-14.809-33.079-33.079 0-18.264 14.809-33.074 33.079-33.074 18.269 0 33.079 14.809 33.079 33.074 0 18.27-14.809 33.079-33.079 33.079z" fill="url(#SVGID_00000013896322493339193870000017873999680269674624_)" data-original="url(#SVGID_00000013896322493339193870000017873999680269674624_)" style=""/></g><path d="m272.136 68.868c0 18.269-14.809 33.079-33.079 33.079s-33.079-14.809-33.079-33.079c0-1.368.093-2.713.254-4.038h-35.916c-.077 1.337-.127 2.681-.127 4.038 0 38.037 30.83 68.873 68.868 68.873 38.037 0 68.868-30.835 68.868-68.873 0-1.356-.05-2.701-.127-4.038h-35.916c.161 1.325.254 2.67.254 4.038z" fill="url(#SVGID_00000160904271822513045620000000632166776808021920_)" data-original="url(#SVGID_00000160904271822513045620000000632166776808021920_)" style=""/><g><g><path d="m447.4 413.75c-10.721 0-20.537-6.011-25.41-15.561l-146.769-287.612c-9.717-19.041-33.029-26.6-52.07-16.883-19.041 9.717-26.6 33.029-16.883 52.07l153.293 300.396c4.529 8.876 13.653 14.463 23.617 14.463h64.222c9.793 0 17.731-7.938 17.731-17.731v-11.412c0-9.792-7.938-17.73-17.731-17.73z" fill="url(#SVGID_00000150804719311618059290000001490980723184439209_)" data-original="url(#SVGID_00000150804719311618059290000001490980723184439209_)" style=""/><path d="m278.032 236.773 40.691 79.738c4.636 9.085 15.726 12.739 24.855 8.19 9.252-4.611 12.967-15.884 8.268-25.092l-40.691-79.738c-4.439-8.7-14.853-12.481-23.84-8.658-9.918 4.218-14.182 15.959-9.283 25.56z" fill="url(#SVGID_00000042721698495463938090000010705675781423491493_)" data-original="url(#SVGID_00000042721698495463938090000010705675781423491493_)" style=""/><path d="m359.561 446.161c4.529 8.876 13.653 14.463 23.617 14.463h64.222c9.793 0 17.731-7.938 17.731-17.731v-11.412c0-9.792-7.938-17.731-17.731-17.731-10.721 0-20.537-6.011-25.41-15.56l-54.64-107.074h-86.91z" fill="url(#SVGID_00000170265046993431259360000002964738902904349357_)" data-original="url(#SVGID_00000170265046993431259360000002964738902904349357_)" style=""/><g><path d="m390.22 446.583v12.935c0 6.554 1.874 12.971 5.402 18.495l18.395 28.805c2.708 4.241 8.903 4.241 11.611 0l18.395-28.805c3.527-5.524 5.402-11.941 5.402-18.495v-12.935z" fill="url(#SVGID_00000099650228211765318670000017823911251482340277_)" data-original="url(#SVGID_00000099650228211765318670000017823911251482340277_)" style=""/><path d="m449.424 244.499v202.197c0 2.886-2.214 5.208-5.081 5.544-1.498.176-2.949.839-4.097 1.989l-2.847 2.842c-2.711 2.716-7.108 2.716-9.819 0l-2.847-2.842c-2.716-2.716-7.108-2.716-9.824 0l-2.847 2.842c-2.711 2.716-7.108 2.716-9.819 0l-2.847-2.842c-1.148-1.15-2.599-1.814-4.097-1.989-2.866-.336-5.081-2.658-5.081-5.544v-202.197c0-9.185 7.446-16.631 16.631-16.631h25.941c9.187 0 16.634 7.446 16.634 16.631z" fill="url(#SVGID_00000084515581797202596210000002121909749479255952_)" data-original="url(#SVGID_00000084515581797202596210000002121909749479255952_)" style=""/><path d="m419.822 238.127c-8.663 0-15.686 7.023-15.686 15.686v204.599c2.585 1.251 5.783.809 7.927-1.339l2.847-2.842c2.716-2.716 7.108-2.716 9.824 0l2.847 2.842c2.145 2.148 5.342 2.59 7.927 1.339v-204.599c0-8.663-7.023-15.686-15.686-15.686z" fill="url(#SVGID_00000103261743980006621430000007384311171552824736_)" data-original="url(#SVGID_00000103261743980006621430000007384311171552824736_)" style=""/><path d="m419.822 491.328c-5.236 0-10.139.766-14.359 2.097l8.554 13.395c2.708 4.241 8.903 4.241 11.611 0l8.554-13.395c-4.221-1.331-9.124-2.097-14.36-2.097z" fill="url(#SVGID_00000183222493023709308800000007183588800560513714_)" data-original="url(#SVGID_00000183222493023709308800000007183588800560513714_)" style=""/></g><path d="m454.747 463.382h-108.013c-7.265 0-13.154-5.889-13.154-13.154v-31.3c0-7.265 5.889-13.154 13.154-13.154h108.013c7.265 0 13.154 5.889 13.154 13.154v31.3c0 7.265-5.889 13.154-13.154 13.154z" fill="url(#SVGID_00000052087666819314731650000016213620417598906559_)" data-original="url(#SVGID_00000052087666819314731650000016213620417598906559_)" style=""/></g><path d="m271.607 273.806 52.993-66.463-49.38-96.766c-2.463-4.826-5.801-8.91-9.719-12.167l-47.418 70.509z" fill="url(#SVGID_00000173132820504969898910000006490628071740163742_)" data-original="url(#SVGID_00000173132820504969898910000006490628071740163742_)" style=""/><g><path d="m61.82 460.084-18.726 36.696c-2.281 4.471-.507 9.944 3.964 12.225 4.47 2.281 9.944.507 12.225-3.964l18.726-36.696c2.281-4.471.506-9.944-3.964-12.225-4.47-2.282-9.943-.507-12.225 3.964z" fill="url(#SVGID_00000010296467338282315540000015167256080650279608_)" data-original="url(#SVGID_00000010296467338282315540000015167256080650279608_)" style=""/><path d="m65.801 403.405-10.786 21.137c-3.159 6.19-4.481 13.153-3.812 20.07l3.49 36.069c.514 5.311 6.364 8.296 10.966 5.596l31.255-18.339c5.993-3.517 10.856-8.674 14.015-14.864l10.786-21.137z" fill="url(#SVGID_00000143598066917997751220000003898633520314936979_)" data-original="url(#SVGID_00000143598066917997751220000003898633520314936979_)" style=""/><path d="m121.713 431.937-55.913-28.532-10.786 21.137c-3.159 6.19-4.481 13.153-3.812 20.07l.666 6.88 39.082 19.944 5.962-3.498c5.993-3.517 10.856-8.674 14.015-14.864z" fill="url(#SVGID_00000106113767659577927640000014799446411790859946_)" data-original="url(#SVGID_00000106113767659577927640000014799446411790859946_)" style=""/><g><g><g><path d="m100.291 453.38-40.562-20.699c-7.84-4.001-10.953-13.6-6.952-21.44l153.43-300.663c9.717-19.041 33.029-26.6 52.07-16.883 19.041 9.717 26.6 33.029 16.883 52.07l-153.43 300.663c-4 7.84-13.599 10.953-21.439 6.952z" fill="url(#SVGID_00000080915554001408175370000012638640752262987651_)" data-original="url(#SVGID_00000080915554001408175370000012638640752262987651_)" style=""/></g></g></g><path d="m207.088 236.773-40.691 79.738c-4.636 9.085-15.726 12.739-24.855 8.19-9.252-4.611-12.967-15.884-8.268-25.092l40.691-79.738c4.439-8.7 14.853-12.481 23.84-8.658 9.918 4.218 14.182 15.959 9.283 25.56z" fill="url(#SVGID_00000054259819864308419590000010041690498295835555_)" data-original="url(#SVGID_00000054259819864308419590000010041690498295835555_)" style=""/></g></g></g></g></svg>