<?xml version="1.0" encoding="iso-8859-1"?>
<!-- Generator: Adobe Illustrator 19.0.0, SVG Export Plug-In . SVG Version: 6.00 Build 0)  -->
<svg version="1.1" id="Capa_1" xmlns="http://www.w3.org/2000/svg" xmlns:xlink="http://www.w3.org/1999/xlink" x="0px" y="0px"
	 viewBox="0 0 512.001 512.001" style="enable-background:new 0 0 512.001 512.001;" xml:space="preserve">
<linearGradient id="SVGID_1_" gradientUnits="userSpaceOnUse" x1="-225.7911" y1="273.675" x2="258.4989" y2="273.675" gradientTransform="matrix(1.0039 0 0 -1.0039 0.1922 516.5609)">
	<stop  offset="0" style="stop-color:#B8DE6F"/>
	<stop  offset="1" style="stop-color:#8AA753"/>
</linearGradient>
<path style="fill:url(#SVGID_1_);" d="M431.21,483.625H80.791c-16.815,0-30.445-13.631-30.445-30.445V30.445
	C50.345,13.631,63.976,0,80.791,0h350.42c16.815,0,30.445,13.631,30.445,30.445v422.734
	C461.656,469.994,448.024,483.625,431.21,483.625z"/>
<linearGradient id="SVGID_2_" gradientUnits="userSpaceOnUse" x1="229.0494" y1="-58.9265" x2="117.5394" y2="52.5835" gradientTransform="matrix(1.0039 0 0 -1.0039 0.1922 516.5609)">
	<stop  offset="0" style="stop-color:#B8DE6F;stop-opacity:0"/>
	<stop  offset="1" style="stop-color:#4B7104"/>
</linearGradient>
<polygon style="fill:url(#SVGID_2_);" points="182.089,483.625 154.009,455.545 94.004,455.545 94.004,483.625 "/>
<linearGradient id="SVGID_3_" gradientUnits="userSpaceOnUse" x1="254.8089" y1="83.693" x2="254.8089" y2="28.273" gradientTransform="matrix(1.0039 0 0 -1.0039 0.1922 516.5609)">
	<stop  offset="0" style="stop-color:#FFF2EB"/>
	<stop  offset="1" style="stop-color:#F1DACB"/>
</linearGradient>
<path style="fill:url(#SVGID_3_);" d="M421.848,470.705H79.115c-9.82,0-17.781-7.961-17.781-17.781V41.739
	c0-15.916,12.902-28.819,28.819-28.819h331.696c15.916,0,28.819,12.902,28.819,28.819v400.147
	C450.667,457.802,437.764,470.705,421.848,470.705z"/>
<linearGradient id="SVGID_4_" gradientUnits="userSpaceOnUse" x1="128.8676" y1="481.5302" x2="354.4676" y2="117.1603" gradientTransform="matrix(1.0039 0 0 -1.0039 0.1922 516.5609)">
	<stop  offset="0" style="stop-color:#B8DE6F"/>
	<stop  offset="1" style="stop-color:#8AA753"/>
</linearGradient>
<path style="fill:url(#SVGID_4_);" d="M431.211,0H80.791C63.976,0,50.345,13.631,50.345,30.445v422.478h10.988l0,0
	c0-9.378,7.602-16.979,16.979-16.979H431.21c16.815,0,30.445-13.631,30.445-30.445V30.445C461.656,13.631,448.024,0,431.211,0z"/>
<linearGradient id="SVGID_5_" gradientUnits="userSpaceOnUse" x1="254.8084" y1="58.813" x2="254.8084" y2="80.483" gradientTransform="matrix(1.0039 0 0 -1.0039 0.1922 516.5609)">
	<stop  offset="0" style="stop-color:#FFF2EB;stop-opacity:0"/>
	<stop  offset="1" style="stop-color:#D3B4A0"/>
</linearGradient>
<path style="fill:url(#SVGID_5_);" d="M431.211,435.944H78.312c-9.373,0-16.971,7.595-16.979,16.966v0.014
	c0,9.82,7.961,17.781,17.781,17.781h342.734c15.916,0,28.819-12.902,28.819-28.819v-12.974
	C445.391,433.302,438.61,435.944,431.211,435.944z"/>
<linearGradient id="SVGID_6_" gradientUnits="userSpaceOnUse" x1="230.414" y1="8.8122" x2="172.72" y2="120.3222" gradientTransform="matrix(1.0039 0 0 -1.0039 0.1922 516.5609)">
	<stop  offset="0" style="stop-color:#B8DE6F;stop-opacity:0"/>
	<stop  offset="1" style="stop-color:#4B7104"/>
</linearGradient>
<path style="fill:url(#SVGID_6_);" d="M79.114,470.706c-9.82,0-17.778-7.958-17.778-17.778c0-4.688,1.895-8.935,4.972-12.011
	c3.065-3.065,7.312-4.972,12-4.972h47.306V0H80.791C63.976,0,50.345,13.63,50.345,30.445v422.734
	c0,16.815,13.631,30.445,30.445,30.445h44.823v-12.919H79.114V470.706z"/>
<g>
	<path style="fill:#FFFFFF;" d="M371.802,101.1H161.307c-4.032,0-7.3-3.268-7.3-7.3V83.301c0-4.032,3.268-7.3,7.3-7.3h210.494
		c4.032,0,7.299,3.268,7.299,7.3V93.8C379.101,97.832,375.833,101.1,371.802,101.1z"/>
	<path style="fill:#FFFFFF;" d="M317.951,146.51H215.157c-4.032,0-7.299-3.268-7.299-7.299v-10.499c0-4.032,3.268-7.3,7.299-7.3
		h102.796c4.032,0,7.3,3.268,7.3,7.3v10.499C325.251,143.243,321.983,146.51,317.951,146.51z"/>
</g>
<linearGradient id="SVGID_7_" gradientUnits="userSpaceOnUse" x1="265.3214" y1="209.633" x2="265.3214" y2="2.133" gradientTransform="matrix(1.0039 0 0 -1.0039 0.1922 516.5609)">
	<stop  offset="0" style="stop-color:#FFF2EB"/>
	<stop  offset="1" style="stop-color:#F1DACB"/>
</linearGradient>
<path style="fill:url(#SVGID_7_);" d="M364.038,377.415H169.071c-8.318,0-15.063-6.743-15.063-15.063v-56.719
	c0-8.319,6.743-15.063,15.063-15.063h194.967c8.319,0,15.063,6.743,15.063,15.063v56.719
	C379.101,370.672,372.357,377.415,364.038,377.415z"/>
<linearGradient id="SVGID_8_" gradientUnits="userSpaceOnUse" x1="203.8669" y1="-27.309" x2="117.1669" y2="59.391" gradientTransform="matrix(1.0039 0 0 -1.0039 0.1922 516.5609)">
	<stop  offset="0" style="stop-color:#FFF2EB;stop-opacity:0"/>
	<stop  offset="1" style="stop-color:#D3B4A0"/>
</linearGradient>
<polygon style="fill:url(#SVGID_8_);" points="169.168,470.705 154.009,455.545 94.004,455.545 94.004,470.705 "/>
<linearGradient id="SVGID_9_" gradientUnits="userSpaceOnUse" x1="123.3299" y1="58.463" x2="123.3299" y2="-32.907" gradientTransform="matrix(1.0039 0 0 -1.0039 0.1922 516.5609)">
	<stop  offset="0" style="stop-color:#FCC344"/>
	<stop  offset="1" style="stop-color:#F7AE3D"/>
</linearGradient>
<path style="fill:url(#SVGID_9_);" d="M146.114,511.368l-19.591-10.378c-1.574-0.834-3.461-0.834-5.035,0l-19.591,10.378
	c-3.581,1.897-7.895-0.699-7.895-4.752v-51.07h60.004v51.07C154.009,510.668,149.695,513.264,146.114,511.368z"/>
<g>
</g>
<g>
</g>
<g>
</g>
<g>
</g>
<g>
</g>
<g>
</g>
<g>
</g>
<g>
</g>
<g>
</g>
<g>
</g>
<g>
</g>
<g>
</g>
<g>
</g>
<g>
</g>
<g>
</g>
</svg>
