<svg xmlns="http://www.w3.org/2000/svg" version="1.1" xmlns:xlink="http://www.w3.org/1999/xlink" xmlns:svgjs="http://svgjs.com/svgjs" width="512" height="512" x="0" y="0" viewBox="0 0 512 512.00025" style="enable-background:new 0 0 512 512" xml:space="preserve"><g><linearGradient xmlns="http://www.w3.org/2000/svg" id="linear0" gradientUnits="userSpaceOnUse" x1="270.1437054544" x2="136.0040650712" y1="216.351465532" y2="495.2772387162"><stop offset="0" stop-color="#ffb5b0"/><stop offset="1" stop-color="#ff70ac"/></linearGradient><linearGradient xmlns="http://www.w3.org/2000/svg" id="lg1"><stop offset="0" stop-color="#e97264" stop-opacity="0"/><stop offset="1" stop-color="#895738"/></linearGradient><linearGradient xmlns="http://www.w3.org/2000/svg" id="linear1" gradientUnits="userSpaceOnUse" x1="203.946895834" x2="217.4558710504" xmlns:xlink="http://www.w3.org/1999/xlink" xlink:href="#lg1" y1="96.5508430748" y2="195.9389202904"/><linearGradient xmlns="http://www.w3.org/2000/svg" id="linear2" gradientUnits="userSpaceOnUse" x1="166.5888499778" x2="278.417327833" xmlns:xlink="http://www.w3.org/1999/xlink" xlink:href="#lg1" y1="200.6848611532" y2="728.073097177"/><linearGradient xmlns="http://www.w3.org/2000/svg" id="linear3" gradientUnits="userSpaceOnUse" x1="475.3097230234" x2="269.628492684" xmlns:xlink="http://www.w3.org/1999/xlink" xlink:href="#lg1" y1="446.9171112698" y2="241.2358809304"/><linearGradient xmlns="http://www.w3.org/2000/svg" id="linear4" gradientUnits="userSpaceOnUse" x1="361.094822182" x2="378.0431337782" y1="309.871317481" y2="437.6358523798"><stop offset="0" stop-color="#00e7b2"/><stop offset="1" stop-color="#4f4a72"/></linearGradient><linearGradient xmlns="http://www.w3.org/2000/svg" id="linear5" gradientUnits="userSpaceOnUse" x1="213.9099181542" x2="213.9099181542" xmlns:xlink="http://www.w3.org/1999/xlink" xlink:href="#lg1" y1="442.5927172548" y2="524.3986065234"/><linearGradient xmlns="http://www.w3.org/2000/svg" id="linear6" gradientUnits="userSpaceOnUse" x1="379.7253054814" x2="308.7455102764" y1="376.72700111" y2="305.747205905"><stop offset="0" stop-color="#3b395f" stop-opacity="0"/><stop offset="1" stop-color="#3b395f"/></linearGradient><radialGradient xmlns="http://www.w3.org/2000/svg" id="radial0" cx="328.7546796584" cy="325.1917695542" gradientUnits="userSpaceOnUse" r="41.703923802"><stop offset="0" stop-color="#ffc738"/><stop offset=".2344" stop-color="#fec33a"/><stop offset=".4454" stop-color="#fbb840"/><stop offset=".6474" stop-color="#f6a649"/><stop offset=".8426" stop-color="#f08d56"/><stop offset="1" stop-color="#e97264"/></radialGradient><linearGradient xmlns="http://www.w3.org/2000/svg" id="lg2"><stop offset="0" stop-color="#00e7b2"/><stop offset=".1223" stop-color="#05ddae"/><stop offset=".3275" stop-color="#12c3a3"/><stop offset=".5903" stop-color="#279992"/><stop offset=".8975" stop-color="#445f7b"/><stop offset="1" stop-color="#4f4a72"/></linearGradient><linearGradient xmlns="http://www.w3.org/2000/svg" id="linear7" gradientUnits="userSpaceOnUse" x1="210.7839058306" x2="305.2339919048" xmlns:xlink="http://www.w3.org/1999/xlink" xlink:href="#lg2" y1="45.5506015528" y2="334.8782113634"/><linearGradient xmlns="http://www.w3.org/2000/svg" id="linear8" gradientUnits="userSpaceOnUse" x1="247.2723544504" x2="247.2723544504" xmlns:xlink="http://www.w3.org/1999/xlink" xlink:href="#lg2" y1="-19.0729619014" y2="251.6254697084"/><path xmlns="http://www.w3.org/2000/svg" d="m392.773438 162.882812v-69.003906c0-19.617187-18.675782-33.851562-37.589844-28.648437l-329.429688 90.574219c-15.210937 4.179687-25.753906 18.015624-25.753906 33.792968v287.355469c0 19.355469 15.691406 35.046875 35.046875 35.046875h357.726563c19.355468 0 35.046874-15.691406 35.046874-35.046875v-279.023437c0-19.355469-15.691406-35.046876-35.046874-35.046876zm0 0" fill="url(#linear0)" data-original="url(#linear0)" style=""/><path xmlns="http://www.w3.org/2000/svg" d="m26.636719 162.882812h366.136719v-69.003906c0-19.617187-18.675782-33.851562-37.589844-28.648437l-329.429688 90.574219c-.046875.011718-.097656.027343-.148437.042968-3.988281 1.113282-3.109375 7.035156 1.03125 7.035156zm0 0" fill="url(#linear1)" data-original="url(#linear1)" style=""/><path xmlns="http://www.w3.org/2000/svg" d="m0 196.730469h367.074219c15.527343 0 28.113281 11.589843 28.113281 25.890625v225.199218c0 14.300782-12.585938 25.890626-28.113281 25.890626h-367.074219zm0 0" fill="url(#linear2)" data-original="url(#linear2)" style=""/><path xmlns="http://www.w3.org/2000/svg" d="m427.820312 476.953125v-185.011719c-1.421874-.527344-2.957031-.820312-4.5625-.820312h-117.601562c-7.261719 0-13.152344 5.886718-13.152344 13.152344v61.894531c0 4.351562 2.125 8.199219 5.378906 10.59375l122.175782 122.175781c4.851562-6.011719 7.761718-13.65625 7.761718-21.984375zm0 0" fill="url(#linear3)" data-original="url(#linear3)" style=""/><path xmlns="http://www.w3.org/2000/svg" d="m423.257812 379.320312h-117.601562c-7.261719 0-13.152344-5.886718-13.152344-13.152343v-61.894531c0-7.265626 5.890625-13.152344 13.152344-13.152344h117.601562c7.265626 0 13.152344 5.886718 13.152344 13.152344v61.894531c0 7.265625-5.886718 13.152343-13.152344 13.152343zm0 0" fill="url(#linear4)" data-original="url(#linear4)" style=""/><path xmlns="http://www.w3.org/2000/svg" d="m0 398.265625v78.6875c0 19.355469 15.691406 35.046875 35.046875 35.046875h357.726563c19.355468 0 35.046874-15.691406 35.046874-35.046875v-78.6875zm0 0" fill="url(#linear5)" data-original="url(#linear5)" style=""/><path xmlns="http://www.w3.org/2000/svg" d="m358.621094 316.746094c-5.035156-5.558594-12.3125-9.050782-20.402344-9.050782-15.203125 0-27.527344 12.324219-27.527344 27.527344 0 8.089844 3.492188 15.363282 9.050782 20.402344l23.699218 23.695312h77.757813zm0 0" fill="url(#linear6)" data-original="url(#linear6)" style=""/><path xmlns="http://www.w3.org/2000/svg" d="m365.746094 335.222656c0 15.199219-12.324219 27.523438-27.527344 27.523438s-27.523438-12.324219-27.523438-27.523438c0-15.203125 12.320313-27.527344 27.523438-27.527344s27.527344 12.324219 27.527344 27.527344zm0 0" fill="url(#radial0)" data-original="url(#radial0)" style=""/><path xmlns="http://www.w3.org/2000/svg" d="m407.183594 162.886719-1.554688 2.433593c-3.980468-1.566406-8.324218-2.433593-12.855468-2.433593h-308.191407l156.878907-156.878907c8.011718-8.011718 20.996093-8.011718 29.007812 0l132.980469 132.980469c6.46875 6.46875 7.710937 16.1875 3.734375 23.898438zm0 0" fill="url(#linear7)" data-original="url(#linear7)" style=""/><path xmlns="http://www.w3.org/2000/svg" d="m271.222656 31.730469c-4.203125-4.199219-9.789062-6.515625-15.734375-6.515625-5.941406 0-11.527343 2.316406-15.730469 6.515625l-131.15625 131.15625h15.714844l123.296875-123.300781c4.339844-4.34375 11.410157-4.34375 15.75 0l108.230469 108.230468c3.125 3.125 4.082031 7.804688 2.507812 11.882813l-3.1875 3.1875h13.828126c2.71875-7.953125.746093-16.886719-5.292969-22.925781zm0 0" fill="url(#linear8)" data-original="url(#linear8)" style=""/></g></svg>