<svg xmlns="http://www.w3.org/2000/svg" version="1.1" xmlns:xlink="http://www.w3.org/1999/xlink" xmlns:svgjs="http://svgjs.com/svgjs" width="512" height="512" x="0" y="0" viewBox="0 0 510.002 510.002" style="enable-background:new 0 0 512 512" xml:space="preserve"><g><linearGradient xmlns="http://www.w3.org/2000/svg" id="lg1"><stop offset="0" stop-color="#fd0"/><stop offset="1" stop-color="#ffb000"/></linearGradient><linearGradient xmlns="http://www.w3.org/2000/svg" id="SVGID_1_" gradientTransform="matrix(.707 -.707 .707 .707 -111.526 240.755)" gradientUnits="userSpaceOnUse" x1="266.461" x2="266.461" xmlns:xlink="http://www.w3.org/1999/xlink" xlink:href="#lg1" y1="208.895" y2="330.799"/><linearGradient xmlns="http://www.w3.org/2000/svg" id="SVGID_00000172413712697553951690000010375382962004141736_" gradientTransform="matrix(.707 -.707 .707 .707 -111.526 240.755)" gradientUnits="userSpaceOnUse" x1="535.809" x2="475.46" xmlns:xlink="http://www.w3.org/1999/xlink" xlink:href="#lg1" y1="298.441" y2="238.092"/><linearGradient xmlns="http://www.w3.org/2000/svg" id="lg2"><stop offset="0" stop-color="#5a5a5a"/><stop offset="1" stop-color="#444"/></linearGradient><linearGradient xmlns="http://www.w3.org/2000/svg" id="SVGID_00000067937881444344158610000015450147513205811884_" gradientTransform="matrix(.707 -.707 .707 .707 -111.526 240.755)" gradientUnits="userSpaceOnUse" x1="-24.071" x2="-7.203" xmlns:xlink="http://www.w3.org/1999/xlink" xlink:href="#lg2" y1="224.935" y2="224.935"/><linearGradient xmlns="http://www.w3.org/2000/svg" id="SVGID_00000116929620943135678410000009986232848837105582_" gradientTransform="matrix(.707 -.707 .707 .707 -111.526 240.755)" gradientUnits="userSpaceOnUse" x1="10.04" x2="26.909" xmlns:xlink="http://www.w3.org/1999/xlink" xlink:href="#lg2" y1="224.935" y2="224.935"/><linearGradient xmlns="http://www.w3.org/2000/svg" id="SVGID_00000106862755214655045470000017724731868021812667_" gradientTransform="matrix(.707 -.707 .707 .707 -111.526 240.755)" gradientUnits="userSpaceOnUse" x1="44.152" x2="61.02" xmlns:xlink="http://www.w3.org/1999/xlink" xlink:href="#lg2" y1="232.751" y2="232.751"/><linearGradient xmlns="http://www.w3.org/2000/svg" id="SVGID_00000170266851113363576930000003858781584298300812_" gradientTransform="matrix(.707 -.707 .707 .707 -111.526 240.755)" gradientUnits="userSpaceOnUse" x1="78.263" x2="95.132" xmlns:xlink="http://www.w3.org/1999/xlink" xlink:href="#lg2" y1="224.935" y2="224.935"/><linearGradient xmlns="http://www.w3.org/2000/svg" id="SVGID_00000178204737956193987780000003407883164003479736_" gradientTransform="matrix(.707 -.707 .707 .707 -111.526 240.755)" gradientUnits="userSpaceOnUse" x1="112.375" x2="129.243" xmlns:xlink="http://www.w3.org/1999/xlink" xlink:href="#lg2" y1="224.935" y2="224.935"/><linearGradient xmlns="http://www.w3.org/2000/svg" id="SVGID_00000092422183760931856460000014745917892524900997_" gradientTransform="matrix(.707 -.707 .707 .707 -111.526 240.755)" gradientUnits="userSpaceOnUse" x1="146.486" x2="163.354" xmlns:xlink="http://www.w3.org/1999/xlink" xlink:href="#lg2" y1="232.751" y2="232.751"/><linearGradient xmlns="http://www.w3.org/2000/svg" id="SVGID_00000179620290784874852220000008267345125817563785_" gradientTransform="matrix(.707 -.707 .707 .707 -111.526 240.755)" gradientUnits="userSpaceOnUse" x1="180.598" x2="197.466" xmlns:xlink="http://www.w3.org/1999/xlink" xlink:href="#lg2" y1="224.935" y2="224.935"/><linearGradient xmlns="http://www.w3.org/2000/svg" id="SVGID_00000057854929647096132690000014924938552876525709_" gradientTransform="matrix(.707 -.707 .707 .707 -111.526 240.755)" gradientUnits="userSpaceOnUse" x1="214.709" x2="231.577" xmlns:xlink="http://www.w3.org/1999/xlink" xlink:href="#lg2" y1="224.935" y2="224.935"/><linearGradient xmlns="http://www.w3.org/2000/svg" id="SVGID_00000030446873120207051900000010666524336098042808_" gradientTransform="matrix(.707 -.707 .707 .707 -111.526 240.755)" gradientUnits="userSpaceOnUse" x1="248.82" x2="265.689" xmlns:xlink="http://www.w3.org/1999/xlink" xlink:href="#lg2" y1="232.751" y2="232.751"/><linearGradient xmlns="http://www.w3.org/2000/svg" id="SVGID_00000016791306803856995620000010925630493842150051_" gradientTransform="matrix(.707 -.707 .707 .707 -111.526 240.755)" gradientUnits="userSpaceOnUse" x1="282.932" x2="299.8" xmlns:xlink="http://www.w3.org/1999/xlink" xlink:href="#lg2" y1="224.935" y2="224.935"/><linearGradient xmlns="http://www.w3.org/2000/svg" id="SVGID_00000067226762027553641680000013542958572710863770_" gradientTransform="matrix(.707 -.707 .707 .707 -111.526 240.755)" gradientUnits="userSpaceOnUse" x1="317.043" x2="333.912" xmlns:xlink="http://www.w3.org/1999/xlink" xlink:href="#lg2" y1="224.935" y2="224.935"/><linearGradient xmlns="http://www.w3.org/2000/svg" id="SVGID_00000136407272683907032020000015636541079240518060_" gradientTransform="matrix(.707 -.707 .707 .707 -111.526 240.755)" gradientUnits="userSpaceOnUse" x1="351.155" x2="368.023" xmlns:xlink="http://www.w3.org/1999/xlink" xlink:href="#lg2" y1="232.751" y2="232.751"/><linearGradient xmlns="http://www.w3.org/2000/svg" id="SVGID_00000099646337742266072460000017709606004063408530_" gradientTransform="matrix(.707 -.707 .707 .707 -111.526 240.755)" gradientUnits="userSpaceOnUse" x1="385.266" x2="402.134" xmlns:xlink="http://www.w3.org/1999/xlink" xlink:href="#lg2" y1="224.935" y2="224.935"/><linearGradient xmlns="http://www.w3.org/2000/svg" id="SVGID_00000163031698257189798830000000963586326896774531_" gradientTransform="matrix(.707 -.707 .707 .707 -111.526 240.755)" gradientUnits="userSpaceOnUse" x1="419.378" x2="436.246" xmlns:xlink="http://www.w3.org/1999/xlink" xlink:href="#lg2" y1="224.935" y2="224.935"/><linearGradient xmlns="http://www.w3.org/2000/svg" id="SVGID_00000052075487924747556860000007839588916108200582_" gradientTransform="matrix(.707 -.707 .707 .707 -111.526 240.755)" gradientUnits="userSpaceOnUse" x1="453.489" x2="470.357" xmlns:xlink="http://www.w3.org/1999/xlink" xlink:href="#lg2" y1="232.751" y2="232.751"/><linearGradient xmlns="http://www.w3.org/2000/svg" id="SVGID_00000143606550317808527730000000596048801785495972_" gradientTransform="matrix(.707 -.707 .707 .707 -111.526 240.755)" gradientUnits="userSpaceOnUse" x1="44.152" x2="44.152" xmlns:xlink="http://www.w3.org/1999/xlink" xlink:href="#lg1" y1="322.85" y2="291.14"/><linearGradient xmlns="http://www.w3.org/2000/svg" id="SVGID_00000071556280711465454180000016405731226790379421_" gradientTransform="matrix(.707 -.707 .707 .707 -111.526 240.755)" gradientUnits="userSpaceOnUse" x1="214.709" x2="214.709" xmlns:xlink="http://www.w3.org/1999/xlink" xlink:href="#lg1" y1="322.85" y2="291.14"/><linearGradient xmlns="http://www.w3.org/2000/svg" id="SVGID_00000146465694403329732820000016962275909359941018_" gradientTransform="matrix(.707 -.707 .707 .707 -111.526 240.755)" gradientUnits="userSpaceOnUse" x1="385.266" x2="385.266" xmlns:xlink="http://www.w3.org/1999/xlink" xlink:href="#lg1" y1="322.85" y2="291.14"/><g xmlns="http://www.w3.org/2000/svg"><path d="m370.512 23.934-363.94 363.939c-8.763 8.763-8.763 22.965 0 31.728l83.828 83.828c8.763 8.763 22.965 8.763 31.728 0l363.94-363.94c15.951-15.951 23.935-36.864 23.935-57.778 0-20.913-7.984-41.826-23.935-57.778-31.911-31.91-83.646-31.91-115.556.001zm82.197 64.592c-8.628 8.628-22.615 8.636-31.243.008s-8.62-22.615.008-31.243 22.607-8.628 31.235 0 8.628 22.608 0 31.235z" fill="url(#SVGID_1_)" data-original="url(#SVGID_1_)" style=""/><path d="m411.161 46.978c-14.321 14.321-14.329 37.548-.008 51.87 14.321 14.321 37.548 14.313 51.87-.008 14.321-14.321 14.321-37.54 0-51.862-14.321-14.321-37.541-14.321-51.862 0zm41.548 41.548c-8.628 8.628-22.615 8.636-31.243.008s-8.62-22.615.008-31.243 22.607-8.628 31.235 0 8.628 22.608 0 31.235z" fill="url(#SVGID_00000172413712697553951690000010375382962004141736_)" data-original="url(#SVGID_00000172413712697553951690000010375382962004141736_)" style=""/><g><path d="m40.258 426.581-19.503-19.503c-3.294-3.294-3.294-8.634 0-11.928s8.634-3.294 11.928 0l19.503 19.503c3.294 3.294 3.294 8.634 0 11.928s-8.634 3.294-11.928 0z" fill="url(#SVGID_00000067937881444344158610000015450147513205811884_)" data-original="url(#SVGID_00000067937881444344158610000015450147513205811884_)" style=""/><path d="m64.378 402.46-19.503-19.503c-3.294-3.294-3.294-8.634 0-11.928s8.634-3.294 11.928 0l19.503 19.503c3.294 3.294 3.294 8.634 0 11.928s-8.633 3.294-11.928 0z" fill="url(#SVGID_00000116929620943135678410000009986232848837105582_)" data-original="url(#SVGID_00000116929620943135678410000009986232848837105582_)" style=""/><path d="m99.552 389.393-30.556-30.556c-3.294-3.294-3.294-8.634 0-11.928s8.634-3.294 11.928 0l30.556 30.556c3.294 3.294 3.294 8.634 0 11.928s-8.634 3.294-11.928 0z" fill="url(#SVGID_00000106862755214655045470000017724731868021812667_)" data-original="url(#SVGID_00000106862755214655045470000017724731868021812667_)" style=""/><path d="m112.619 354.219-19.503-19.503c-3.294-3.294-3.294-8.634 0-11.928s8.634-3.294 11.928 0l19.503 19.503c3.294 3.294 3.294 8.634 0 11.928s-8.634 3.295-11.928 0z" fill="url(#SVGID_00000170266851113363576930000003858781584298300812_)" data-original="url(#SVGID_00000170266851113363576930000003858781584298300812_)" style=""/><path d="m136.74 330.099-19.503-19.503c-3.294-3.294-3.294-8.634 0-11.928s8.634-3.294 11.928 0l19.503 19.503c3.294 3.294 3.294 8.634 0 11.928-3.295 3.294-8.634 3.294-11.928 0z" fill="url(#SVGID_00000178204737956193987780000003407883164003479736_)" data-original="url(#SVGID_00000178204737956193987780000003407883164003479736_)" style=""/><path d="m171.913 317.032-30.556-30.556c-3.294-3.294-3.294-8.634 0-11.928s8.634-3.294 11.928 0l30.556 30.556c3.294 3.294 3.294 8.634 0 11.928s-8.634 3.294-11.928 0z" fill="url(#SVGID_00000092422183760931856460000014745917892524900997_)" data-original="url(#SVGID_00000092422183760931856460000014745917892524900997_)" style=""/><path d="m184.981 281.858-19.503-19.503c-3.294-3.294-3.294-8.634 0-11.928s8.634-3.294 11.928 0l19.503 19.503c3.294 3.294 3.294 8.634 0 11.928-3.295 3.294-8.634 3.294-11.928 0z" fill="url(#SVGID_00000179620290784874852220000008267345125817563785_)" data-original="url(#SVGID_00000179620290784874852220000008267345125817563785_)" style=""/><path d="m209.101 257.738-19.503-19.503c-3.294-3.294-3.294-8.634 0-11.928s8.634-3.294 11.928 0l19.503 19.503c3.294 3.294 3.294 8.634 0 11.928s-8.634 3.294-11.928 0z" fill="url(#SVGID_00000057854929647096132690000014924938552876525709_)" data-original="url(#SVGID_00000057854929647096132690000014924938552876525709_)" style=""/><path d="m244.275 244.67-30.556-30.556c-3.294-3.294-3.294-8.634 0-11.928s8.634-3.294 11.928 0l30.556 30.556c3.294 3.294 3.294 8.634 0 11.928-3.295 3.295-8.634 3.295-11.928 0z" fill="url(#SVGID_00000030446873120207051900000010666524336098042808_)" data-original="url(#SVGID_00000030446873120207051900000010666524336098042808_)" style=""/><path d="m257.342 209.497-19.503-19.503c-3.294-3.294-3.294-8.634 0-11.928s8.634-3.294 11.928 0l19.503 19.503c3.294 3.294 3.294 8.634 0 11.928-3.295 3.294-8.634 3.294-11.928 0z" fill="url(#SVGID_00000016791306803856995620000010925630493842150051_)" data-original="url(#SVGID_00000016791306803856995620000010925630493842150051_)" style=""/><path d="m281.462 185.376-19.503-19.503c-3.294-3.294-3.294-8.634 0-11.928s8.634-3.294 11.928 0l19.503 19.503c3.294 3.294 3.294 8.634 0 11.928-3.294 3.295-8.634 3.295-11.928 0z" fill="url(#SVGID_00000067226762027553641680000013542958572710863770_)" data-original="url(#SVGID_00000067226762027553641680000013542958572710863770_)" style=""/><path d="m316.636 172.309-30.556-30.556c-3.294-3.294-3.294-8.634 0-11.928s8.634-3.294 11.928 0l30.556 30.556c3.294 3.294 3.294 8.634 0 11.928-3.295 3.294-8.634 3.294-11.928 0z" fill="url(#SVGID_00000136407272683907032020000015636541079240518060_)" data-original="url(#SVGID_00000136407272683907032020000015636541079240518060_)" style=""/><path d="m329.703 137.136-19.503-19.504c-3.294-3.294-3.294-8.634 0-11.928s8.634-3.294 11.928 0l19.503 19.503c3.294 3.294 3.294 8.634 0 11.928-3.294 3.295-8.634 3.295-11.928.001z" fill="url(#SVGID_00000099646337742266072460000017709606004063408530_)" data-original="url(#SVGID_00000099646337742266072460000017709606004063408530_)" style=""/><path d="m353.824 113.015-19.504-19.503c-3.294-3.294-3.294-8.634 0-11.928s8.634-3.294 11.928 0l19.503 19.503c3.294 3.294 3.294 8.634 0 11.928s-8.633 3.294-11.927 0z" fill="url(#SVGID_00000163031698257189798830000000963586326896774531_)" data-original="url(#SVGID_00000163031698257189798830000000963586326896774531_)" style=""/><path d="m388.997 99.948-30.556-30.556c-3.294-3.294-3.294-8.634 0-11.928s8.634-3.294 11.928 0l30.556 30.556c3.294 3.294 3.294 8.634 0 11.928s-8.634 3.294-11.928 0z" fill="url(#SVGID_00000052075487924747556860000007839588916108200582_)" data-original="url(#SVGID_00000052075487924747556860000007839588916108200582_)" style=""/></g><g><path d="m185.983 399.192-76.633 76.633c-6.067 6.067-15.903 6.067-21.97 0-6.067-6.067-6.067-15.903 0-21.97l76.633-76.633c6.067-6.067 15.903-6.067 21.97 0 6.067 6.067 6.067 15.903 0 21.97z" fill="url(#SVGID_00000143606550317808527730000000596048801785495972_)" data-original="url(#SVGID_00000143606550317808527730000000596048801785495972_)" style=""/><path d="m306.585 278.59-76.633 76.633c-6.067 6.067-15.903 6.067-21.97 0-6.067-6.067-6.067-15.903 0-21.97l76.633-76.633c6.067-6.067 15.903-6.067 21.97 0 6.067 6.067 6.067 15.903 0 21.97z" fill="url(#SVGID_00000071556280711465454180000016405731226790379421_)" data-original="url(#SVGID_00000071556280711465454180000016405731226790379421_)" style=""/><path d="m427.188 157.987-76.633 76.633c-6.067 6.067-15.903 6.067-21.97 0-6.067-6.067-6.067-15.903 0-21.97l76.633-76.633c6.067-6.067 15.903-6.067 21.97 0 6.066 6.068 6.066 15.904 0 21.97z" fill="url(#SVGID_00000146465694403329732820000016962275909359941018_)" data-original="url(#SVGID_00000146465694403329732820000016962275909359941018_)" style=""/></g></g></g></svg>