<svg xmlns="http://www.w3.org/2000/svg" version="1.1" xmlns:xlink="http://www.w3.org/1999/xlink" xmlns:svgjs="http://svgjs.com/svgjs" width="512" height="512" x="0" y="0" viewBox="0 0 510 510" style="enable-background:new 0 0 512 512" xml:space="preserve"><g><linearGradient xmlns="http://www.w3.org/2000/svg" id="lg1"><stop offset="0" stop-color="#eaf6ff"/><stop offset=".2575" stop-color="#dce8fa"/><stop offset=".7423" stop-color="#b8c4ed"/><stop offset="1" stop-color="#a2aee6"/></linearGradient><linearGradient xmlns="http://www.w3.org/2000/svg" id="SVGID_1_" gradientUnits="userSpaceOnUse" x1="71.255" x2="569.23" xmlns:xlink="http://www.w3.org/1999/xlink" xlink:href="#lg1" y1="62.502" y2="521.479"/><linearGradient xmlns="http://www.w3.org/2000/svg" id="lg2"><stop offset="0" stop-color="#7bacdf" stop-opacity="0"/><stop offset="1" stop-color="#7bacdf"/></linearGradient><linearGradient xmlns="http://www.w3.org/2000/svg" id="SVGID_2_" gradientUnits="userSpaceOnUse" x1="445.096" x2="175.096" xmlns:xlink="http://www.w3.org/1999/xlink" xlink:href="#lg2" y1="366.628" y2="199.628"/><linearGradient xmlns="http://www.w3.org/2000/svg" id="SVGID_3_" gradientUnits="userSpaceOnUse" x1="277.605" x2="277.605" xmlns:xlink="http://www.w3.org/1999/xlink" xlink:href="#lg2" y1="352.667" y2="506.737"/><linearGradient xmlns="http://www.w3.org/2000/svg" id="SVGID_4_" gradientUnits="userSpaceOnUse" x1="405.654" x2="303.75" y1="550.993" y2="449.089"><stop offset="0" stop-color="#8795de" stop-opacity="0"/><stop offset=".4678" stop-color="#7d8ddc" stop-opacity=".468"/><stop offset="1" stop-color="#6c7fd8"/></linearGradient><linearGradient xmlns="http://www.w3.org/2000/svg" id="SVGID_5_" gradientUnits="userSpaceOnUse" x1="218.455" x2="218.455" xmlns:xlink="http://www.w3.org/1999/xlink" xlink:href="#lg1" y1="416" y2="517.079"/><linearGradient xmlns="http://www.w3.org/2000/svg" id="SVGID_6_" gradientUnits="userSpaceOnUse" x1="141.22" x2="289.091" y1="181.909" y2="181.909"><stop offset="0" stop-color="#a2e62e"/><stop offset="1" stop-color="#02905d"/></linearGradient><linearGradient xmlns="http://www.w3.org/2000/svg" id="lg3"><stop offset="0" stop-color="#537983"/><stop offset="1" stop-color="#3e5959"/></linearGradient><linearGradient xmlns="http://www.w3.org/2000/svg" id="SVGID_7_" gradientUnits="userSpaceOnUse" x1="320.873" x2="349.304" xmlns:xlink="http://www.w3.org/1999/xlink" xlink:href="#lg3" y1="69.165" y2="141.874"/><linearGradient xmlns="http://www.w3.org/2000/svg" id="SVGID_8_" gradientUnits="userSpaceOnUse" x1="357.004" x2="385.435" xmlns:xlink="http://www.w3.org/1999/xlink" xlink:href="#lg3" y1="56.039" y2="128.748"/><linearGradient xmlns="http://www.w3.org/2000/svg" id="SVGID_9_" gradientUnits="userSpaceOnUse" x1="376.386" x2="404.817" xmlns:xlink="http://www.w3.org/1999/xlink" xlink:href="#lg3" y1="48.998" y2="121.707"/><linearGradient xmlns="http://www.w3.org/2000/svg" id="SVGID_10_" gradientUnits="userSpaceOnUse" x1="284.564" x2="312.969" xmlns:xlink="http://www.w3.org/1999/xlink" xlink:href="#lg3" y1="82.39" y2="155.032"/><linearGradient xmlns="http://www.w3.org/2000/svg" id="SVGID_11_" gradientUnits="userSpaceOnUse" x1="301.148" x2="329.553" xmlns:xlink="http://www.w3.org/1999/xlink" xlink:href="#lg3" y1="76.371" y2="149.013"/><linearGradient xmlns="http://www.w3.org/2000/svg" id="SVGID_12_" gradientUnits="userSpaceOnUse" x1="338.366" x2="366.771" xmlns:xlink="http://www.w3.org/1999/xlink" xlink:href="#lg3" y1="62.864" y2="135.507"/><linearGradient xmlns="http://www.w3.org/2000/svg" id="lg4"><stop offset="0" stop-color="#384949" stop-opacity="0"/><stop offset="1" stop-color="#384949"/></linearGradient><linearGradient xmlns="http://www.w3.org/2000/svg" id="SVGID_13_" gradientUnits="userSpaceOnUse" x1="362.605" x2="285.589" xmlns:xlink="http://www.w3.org/1999/xlink" xlink:href="#lg4" y1="178.06" y2="101.044"/><linearGradient xmlns="http://www.w3.org/2000/svg" id="SVGID_14_" gradientUnits="userSpaceOnUse" x1="352.602" x2="275.585" xmlns:xlink="http://www.w3.org/1999/xlink" xlink:href="#lg4" y1="188.064" y2="111.047"/><linearGradient xmlns="http://www.w3.org/2000/svg" id="SVGID_15_" gradientUnits="userSpaceOnUse" x1="357.336" x2="280.319" xmlns:xlink="http://www.w3.org/1999/xlink" xlink:href="#lg4" y1="183.33" y2="106.314"/><g xmlns="http://www.w3.org/2000/svg"><path d="m450.439 26.63v410.28c0 20.19-8.18 38.46-21.41 51.68-13.22 13.23-31.5 21.41-51.68 21.41h-228.329c-24.434 0-44.241-19.807-44.241-44.241v-439.129c0-.016 0-.031 0-.047.005-3.184 1.127-6.287 3.083-8.8 6.341-8.146 18.326-11.261 28.277-5.084 6.55 4.07 14.83 4.13 21.43.14l11.27-6.8c6.67-4.03 14.17-6.04 21.68-6.04 7.54 0 15.09 2.03 21.77 6.09l.58.35c13.23 8.04 29.87 7.9 42.97-.35 6.7-4.04 14.24-6.06 21.78-6.06s15.08 2.02 21.77 6.06c6.69 4.05 14.23 6.07 21.77 6.07s15.08-2.02 21.77-6.07c6.73-3.9 14.25-5.85 21.76-5.85 7.78 0 15.56 2.09 22.46 6.26l10.03 6.06c6.81 4.11 15.33 4.11 22.13 0 3.55-2.14 7.33-3.12 11.03-3.12 6.756 0 13.187 3.264 17.214 8.619 1.845 2.454 2.881 5.459 2.886 8.529z" fill="url(#SVGID_1_)" data-original="url(#SVGID_1_)" style=""/><path d="m450.439 261.146-167.786-167.786c-6.516-11.938-27.643-16.377-43.702-17.774-.131-3.342-3.81-6.459-8.19-7.543v-.479c0-4.217-5.722-8.132-11.444-8.132-6.625 0-11.444 3.915-11.444 8.132v8.432c-31.923 4.517-60.233 22.888-60.233 61.135 0 19.017 7.922 31.797 19.27 41.138l40.964 40.973v28.718c-22.286-3.917-32.525-21.684-45.175-21.684-11.444 0-20.478 15.058-20.478 25.298 0 7.927 5.001 15.75 13.394 22.3l234.916 234.916c14.896-2.715 28.228-9.923 38.498-20.202 13.23-13.22 21.41-31.49 21.41-51.68z" fill="url(#SVGID_2_)" data-original="url(#SVGID_2_)" style=""/><path d="m450.437 436.91v-126.91h-345.665v170.967c0 16.034 12.998 29.033 29.033 29.033h243.542c20.18 0 38.46-8.18 51.68-21.41 13.23-13.22 21.41-31.49 21.41-51.68z" fill="url(#SVGID_3_)" data-original="url(#SVGID_3_)" style=""/><path d="m299.397 421.75v16.077c0 39.86 32.313 72.173 72.173 72.173h5.779c3.272 0 6.487-.237 9.645-.653z" fill="url(#SVGID_4_)" data-original="url(#SVGID_4_)" style=""/><path d="m304.262 436.914c0 40.364 32.722 73.086 73.086 73.086h-244.701c-40.364 0-73.086-32.722-73.086-73.086 0-15.353 12.446-27.799 27.799-27.799h189.104c15.352 0 27.798 12.446 27.798 27.799z" fill="url(#SVGID_5_)" data-original="url(#SVGID_5_)" style=""/><g fill="#8795de"><path d="m360.338 317.445h-66.946c-1.054 0-1.908-.854-1.908-1.908v-11.185c0-1.054.854-1.908 1.908-1.908h66.946c1.054 0 1.908.854 1.908 1.908v11.185c-.001 1.054-.855 1.908-1.908 1.908z" fill="#8795de" data-original="#8795de" style=""/><path d="m408.338 346.445h-114.946c-1.054 0-1.908-.854-1.908-1.908v-11.185c0-1.054.854-1.908 1.908-1.908h114.946c1.054 0 1.908.854 1.908 1.908v11.185c-.001 1.054-.855 1.908-1.908 1.908z" fill="#8795de" data-original="#8795de" style=""/><path d="m382.338 375.445h-88.946c-1.054 0-1.908-.854-1.908-1.908v-11.185c0-1.054.854-1.908 1.908-1.908h88.946c1.054 0 1.908.854 1.908 1.908v11.185c-.001 1.054-.855 1.908-1.908 1.908z" fill="#8795de" data-original="#8795de" style=""/></g><g><path d="m206.873 289.725c-36.139-1.205-65.653-19.876-65.653-39.151 0-10.24 9.034-25.298 20.478-25.298 12.65 0 22.889 17.768 45.175 21.684v-48.789c-27.708-10.541-60.233-23.491-60.233-62.04 0-38.247 28.31-56.618 60.233-61.135v-8.432c0-4.217 4.819-8.132 11.444-8.132 5.722 0 11.444 3.915 11.444 8.132v7.529c18.671.602 53.908 5.42 53.908 26.2 0 8.132-5.42 24.696-18.673 24.696-9.937 0-15.659-9.637-35.235-11.142v43.969c27.405 10.239 59.33 24.395 59.33 65.05 0 37.345-24.094 59.931-59.33 65.653v8.734c0 4.217-5.722 8.132-11.444 8.132-6.625 0-11.444-3.915-11.444-8.132zm3.01-139.136v-35.839c-13.551 2.71-19.274 9.637-19.274 16.864 0 8.735 7.831 14.155 19.274 18.975zm16.868 55.713v40.356c10.238-2.409 18.37-8.131 18.37-18.971-.001-9.941-7.53-16.265-18.37-21.385z" fill="url(#SVGID_6_)" data-original="url(#SVGID_6_)" style=""/></g><g><path d="m346.845 79.689v70.123c0 1.311-1.138 2.374-2.542 2.374h-11.209c-1.404 0-2.542-1.063-2.542-2.374v-70.123c0-1.311 1.138-2.374 2.542-2.374h11.209c1.404 0 2.542 1.063 2.542 2.374z" fill="url(#SVGID_7_)" data-original="url(#SVGID_7_)" style=""/><path d="m388.11 79.689v70.123c0 1.311-1.138 2.374-2.542 2.374h-11.213c-1.404 0-2.542-1.063-2.542-2.374v-70.123c0-1.311 1.138-2.374 2.542-2.374h11.213c1.404 0 2.542 1.063 2.542 2.374z" fill="url(#SVGID_8_)" data-original="url(#SVGID_8_)" style=""/><path d="m410.245 79.689v70.123c0 1.311-1.138 2.374-2.542 2.374h-11.213c-1.404 0-2.542-1.063-2.542-2.374v-70.123c0-1.311 1.138-2.374 2.542-2.374h11.213c1.404 0 2.542 1.063 2.542 2.374z" fill="url(#SVGID_9_)" data-original="url(#SVGID_9_)" style=""/><path d="m303.9 79.689v70.123c0 1.311-1.138 2.374-2.542 2.374h-8.28c-1.404 0-2.542-1.063-2.542-2.374v-70.123c0-1.311 1.138-2.374 2.542-2.374h8.28c1.404 0 2.542 1.063 2.542 2.374z" fill="url(#SVGID_10_)" data-original="url(#SVGID_10_)" style=""/><path d="m322.838 79.689v70.123c0 1.311-1.138 2.374-2.542 2.374h-8.28c-1.404 0-2.542-1.063-2.542-2.374v-70.123c0-1.311 1.138-2.374 2.542-2.374h8.28c1.404 0 2.542 1.063 2.542 2.374z" fill="url(#SVGID_11_)" data-original="url(#SVGID_11_)" style=""/><path d="m365.336 79.689v70.123c0 1.311-1.138 2.374-2.542 2.374h-8.277c-1.404 0-2.542-1.063-2.542-2.374v-70.123c0-1.311 1.138-2.374 2.542-2.374h8.277c1.404 0 2.542 1.063 2.542 2.374z" fill="url(#SVGID_12_)" data-original="url(#SVGID_12_)" style=""/></g><g><path d="m330.549 141.26v8.55c0 1.31 1.14 2.38 2.54 2.38h8.39z" fill="url(#SVGID_13_)" data-original="url(#SVGID_13_)" style=""/><path d="m290.539 149.81c0 1.31 1.13 2.38 2.54 2.38h8.28c1.4 0 2.54-1.07 2.54-2.38v-35.2l-13.36-13.36z" fill="url(#SVGID_14_)" data-original="url(#SVGID_14_)" style=""/><path d="m309.469 149.81c0 1.31 1.14 2.38 2.55 2.38h8.28c1.4 0 2.54-1.07 2.54-2.38v-16.26l-13.37-13.37z" fill="url(#SVGID_15_)" data-original="url(#SVGID_15_)" style=""/></g></g></g></svg>