<svg xmlns="http://www.w3.org/2000/svg" xmlns:xlink="http://www.w3.org/1999/xlink" width="512" height="512" viewBox="0 0 510 510" style="enable-background:new 0 0 512 512" xml:space="preserve"><linearGradient id="a"><stop offset="0" stop-color="#eaf6ff"/><stop offset="1" stop-color="#b3dafe"/></linearGradient><linearGradient xlink:href="#a" id="d" x1="102.561" x2="488.431" y1="145.993" y2="531.863" gradientUnits="userSpaceOnUse"/><linearGradient id="b"><stop offset="0" stop-color="#d8ecfe" stop-opacity="0"/><stop offset="1" stop-color="#678d98"/></linearGradient><linearGradient xlink:href="#b" id="e" x1="415.411" x2="415.411" y1="254.667" y2="108.174" gradientUnits="userSpaceOnUse"/><linearGradient id="c"><stop offset="0" stop-color="#5a5a5a"/><stop offset="1" stop-color="#444"/></linearGradient><linearGradient xlink:href="#c" id="f" x1="89.692" x2="168.226" y1="133.124" y2="211.658" gradientUnits="userSpaceOnUse"/><linearGradient xlink:href="#c" id="g" x1="89.692" x2="168.226" y1="371.859" y2="450.394" gradientUnits="userSpaceOnUse"/><linearGradient xlink:href="#c" id="h" x1="328.427" x2="406.962" y1="133.124" y2="211.658" gradientUnits="userSpaceOnUse"/><linearGradient id="i" x1="458.38" x2="383.519" y1="202.288" y2="127.427" gradientUnits="userSpaceOnUse"><stop offset="0" stop-color="#433f43" stop-opacity="0"/><stop offset="1" stop-color="#1a1a1a"/></linearGradient><linearGradient xlink:href="#c" id="j" x1="209.121" x2="256.897" y1="179.129" y2="179.129" gradientUnits="userSpaceOnUse"/><linearGradient xlink:href="#c" id="k" x1="256.897" x2="304.672" y1="226.905" y2="226.905" gradientUnits="userSpaceOnUse"/><linearGradient xlink:href="#c" id="l" x1="304.672" x2="400.224" y1="274.68" y2="274.68" gradientUnits="userSpaceOnUse"/><linearGradient xlink:href="#c" id="m" x1="113.569" x2="400.224" y1="322.456" y2="322.456" gradientUnits="userSpaceOnUse"/><linearGradient xlink:href="#b" id="n" x1="233.009" x2="233.009" y1="429.418" y2="528.323" gradientUnits="userSpaceOnUse"/><linearGradient xlink:href="#a" id="o" x1="351.666" x2="424.989" y1="395.649" y2="468.972" gradientUnits="userSpaceOnUse"/><linearGradient id="p" x1="318.333" x2="450.416" y1="-27.667" y2="104.416" gradientUnits="userSpaceOnUse"><stop offset="0" stop-color="#b3dafe"/><stop offset="1" stop-color="#4fc123"/></linearGradient><linearGradient id="q" x1="428" x2="428" y1="103" y2="175" gradientUnits="userSpaceOnUse"><stop offset="0" stop-color="#02905d" stop-opacity="0"/><stop offset=".455" stop-color="#028a58" stop-opacity=".455"/><stop offset="1" stop-color="#017b4e"/></linearGradient><linearGradient id="r" x1="497.902" x2="446.388" y1="140.098" y2="88.585" gradientUnits="userSpaceOnUse"><stop offset="0" stop-color="#4fc123" stop-opacity="0"/><stop offset="1" stop-color="#017b4e"/></linearGradient><linearGradient xlink:href="#a" id="s" x1="398.217" x2="473.044" y1="40.416" y2="115.244" gradientUnits="userSpaceOnUse"/><path fill="url(#d)" d="M350.037 510h-321.3C12.866 510 0 497.134 0 481.262V71.619c0-15.872 12.866-28.738 28.738-28.738H437.28c15.871 0 28.738 12.867 28.738 28.738V394.02C466.017 458.074 414.091 510 350.037 510z" data-original="url(#d)"/><path fill="url(#e)" d="M466.017 235.465V71.619c0-10.459-5.589-19.611-13.941-24.638l-87.271 87.271z" data-original="url(#e)"/><path fill="url(#f)" d="M145.504 204.92H81.777c-8.828 0-15.984-7.156-15.984-15.984v-63.727c0-8.828 7.156-15.984 15.984-15.984h63.727c8.828 0 15.984 7.156 15.984 15.984v63.727c0 8.828-7.156 15.984-15.984 15.984z" data-original="url(#f)"/><path fill="url(#g)" d="M145.504 443.656H81.777c-8.828 0-15.984-7.156-15.984-15.984v-63.727c0-8.828 7.156-15.984 15.984-15.984h63.727c8.828 0 15.984 7.156 15.984 15.984v63.727c0 8.827-7.156 15.984-15.984 15.984z" data-original="url(#g)"/><path fill="url(#h)" d="M384.24 204.92h-63.727c-8.828 0-15.984-7.156-15.984-15.984v-63.727c0-8.828 7.156-15.984 15.984-15.984h63.727c8.828 0 15.984 7.156 15.984 15.984v63.727c0 8.828-7.156 15.984-15.984 15.984z" data-original="url(#h)"/><path fill="url(#i)" d="M400.224 169.672v-44.463c0-7.139-4.683-13.181-11.143-15.233l-24.276 24.276z" data-original="url(#i)"/><path fill="url(#j)" d="M249.08 155.241h-32.142a7.817 7.817 0 0 0-7.817 7.817V195.2c0 4.317 3.5 7.817 7.817 7.817h32.142c4.317 0 7.817-3.5 7.817-7.817v-32.142a7.818 7.818 0 0 0-7.817-7.817z" data-original="url(#j)"/><path fill="url(#k)" d="M304.672 242.976v-32.142c0-4.317-3.5-7.817-7.817-7.817h-32.142a7.817 7.817 0 0 0-7.817 7.817v32.142c0 4.317 3.5 7.817 7.817 7.817h32.142a7.818 7.818 0 0 0 7.817-7.817z" data-original="url(#k)"/><path fill="url(#l)" d="M352.448 298.568h39.959c4.317 0 7.817-3.5 7.817-7.817v-32.142c0-4.317-3.5-7.817-7.817-7.817h-79.918a7.817 7.817 0 0 0-7.817 7.817v32.142c0 4.317 3.5 7.817 7.817 7.817z" data-original="url(#l)"/><path fill="url(#m)" d="M264.713 298.568a7.817 7.817 0 0 0-7.817 7.817v79.918c0 4.317-3.5 7.817-7.817 7.817h-32.142a7.817 7.817 0 0 1-7.817-7.817v-79.918c0-4.317 3.5-7.817 7.817-7.817h32.142c4.317 0 7.817-3.5 7.817-7.817v-32.142c0-4.317-3.5-7.817-7.817-7.817h-32.142a7.817 7.817 0 0 1-7.817-7.817v-32.142c0-4.317-3.5-7.817-7.817-7.817h-32.142a7.817 7.817 0 0 0-7.817 7.817v32.142c0 4.317-3.5 7.817-7.817 7.817h-32.142a7.817 7.817 0 0 0-7.817 7.817v32.142c0 4.317 3.5 7.817 7.817 7.817h32.142c4.317 0 7.817 3.5 7.817 7.817v79.918c0 4.317 3.5 7.817 7.817 7.817h32.142c4.317 0 7.817 3.5 7.817 7.817v32.142c0 4.317 3.5 7.817 7.817 7.817h32.142c4.317 0 7.817-3.5 7.817-7.817v-32.142c0-4.317 3.5-7.817 7.817-7.817h127.694c4.317 0 7.817-3.5 7.817-7.817v-32.142c0-4.317-3.5-7.817-7.817-7.817h-79.918a7.817 7.817 0 0 1-7.817-7.817v-32.142c0-4.317-3.5-7.817-7.817-7.817z" data-original="url(#m)"/><path fill="url(#n)" d="M0 299.399v181.863C0 497.134 12.866 510 28.738 510h321.3c64.054 0 115.98-51.926 115.98-115.98v-94.621z" data-original="url(#n)"/><path fill="url(#o)" d="M350.037 510v-87.242c0-15.871 12.867-28.738 28.738-28.738h87.242c0 64.054-51.926 115.98-115.98 115.98z" data-original="url(#o)"/><circle cx="428" cy="82" r="82" fill="url(#p)" data-original="url(#p)"/><path fill="url(#q)" d="M346.025 83c.538 44.825 37.023 81 81.975 81s81.436-36.175 81.975-81z" data-original="url(#q)"/><path fill="url(#r)" d="m405.15 127.08 35.876 35.879C480.121 156.717 510 122.853 510 82c0-3.454-.238-6.851-.653-10.193L484.88 47.34z" data-original="url(#r)"/><path fill="url(#s)" d="m489.47 60.264-66.818 66.818c-4.834 4.834-12.672 4.834-17.506 0L366.53 88.466a5.89 5.89 0 0 1 0-8.331l16.915-16.915a5.891 5.891 0 0 1 8.332 0l20.819 20.819c.72.72 1.887.72 2.607 0l49.021-49.021a5.891 5.891 0 0 1 8.332 0l16.915 16.915c2.3 2.3 2.3 6.03-.001 8.331z" data-original="url(#s)"/></svg>